<svg width="24" height="24" viewBox="0 0 24 24" fill="none" xmlns="http://www.w3.org/2000/svg">
<path d="M9.57864 7.27419L11.6939 9.38867L19.188 1.89453H12.564L14.8155 4.14598L11.6939 7.26683L9.60718 5.18019L1.96436 12.4202L2.99561 13.51L9.57864 7.27419Z" fill="white"/>
<path d="M24 7.15243C24 6.26982 22.94 5.81999 22.3052 6.43324L13.6459 14.799C13.2535 15.178 12.6297 15.1727 12.2439 14.7869L10.662 13.2049C10.2767 12.8197 9.65395 12.8137 9.2614 13.1915L1.78762 20.3847C1.13905 21.0089 1.58091 22.1052 2.48107 22.1052H23C23.5523 22.1052 24 21.6575 24 21.1052V7.15243Z" fill="white"/>
</svg>
