<svg width="24" height="24" viewBox="0 0 24 24" fill="none" xmlns="http://www.w3.org/2000/svg">
<g clip-path="url(#clip0_3188_1552)">
<path d="M15.024 22C16.2771 22 17.3524 21.9342 18.2508 21.7345C19.1607 21.5323 19.9494 21.1798 20.5646 20.5646C21.1798 19.9494 21.5323 19.1607 21.7345 18.2508C21.9342 17.3524 22 16.2771 22 15.024V12C22 10.8954 21.1046 10 20 10H12C10.8954 10 10 10.8954 10 12V20C10 21.1046 10.8954 22 12 22H15.024Z" fill="#026451"/>
<path d="M2 15.024C2 16.2771 2.06584 17.3524 2.26552 18.2508C2.46772 19.1607 2.82021 19.9494 3.43543 20.5646C4.05065 21.1798 4.83933 21.5323 5.74915 21.7345C5.83628 21.7538 5.92385 21.772 6.01178 21.789C7.09629 21.9985 8 21.0806 8 19.976V12C8 10.8954 7.10457 10 6 10H4C2.89543 10 2 10.8954 2 12V15.024Z" fill="#026451"/>
<path d="M8.97619 2C7.72306 2 6.64781 2.06584 5.74934 2.26552C4.83952 2.46772 4.05084 2.82021 3.43562 3.43543C2.8204 4.05065 2.46791 4.83933 2.26571 5.74915C2.24911 5.82386 2.23349 5.89881 2.21882 5.97398C2.00444 7.07267 2.93912 8 4.05852 8H19.9762C21.0808 8 21.9987 7.09629 21.7892 6.01178C21.7722 5.92385 21.754 5.83628 21.7347 5.74915C21.5324 4.83933 21.18 4.05065 20.5647 3.43543C19.9495 2.82021 19.1608 2.46772 18.251 2.26552C17.3525 2.06584 16.2773 2 15.0242 2H8.97619Z" fill="#026451"/>
</g>
<defs>
<clipPath id="clip0_3188_1552">
<rect width="24" height="24" fill="white"/>
</clipPath>
</defs>
</svg>
