<svg width="20" height="20" viewBox="0 0 20 20" fill="none" xmlns="http://www.w3.org/2000/svg">
<path d="M18.6146 1.31718C18.4903 1.19268 18.3981 1.10045 18.3109 1.02291C16.7805 -0.340971 14.4708 -0.340971 12.9404 1.02291C12.8532 1.10045 12.7612 1.19268 12.6367 1.31701L12.124 1.82984L18.1454 7.85118L18.658 7.33852C18.7825 7.21419 18.8748 7.12196 18.9525 7.0348C20.3162 5.50434 20.3162 3.19466 18.9525 1.66429C18.8748 1.57712 18.7825 1.48489 18.658 1.36039L18.6146 1.31718Z" fill="#EC6453"/>
<path d="M10.6972 3.25684L16.7185 9.27817L8.47484 17.5218C7.96555 18.0316 7.57955 18.418 7.10114 18.6893C6.6229 18.9606 6.09316 19.0933 5.39433 19.2688L4.01168 19.6165C3.35069 19.7827 2.7483 19.9344 2.2618 19.9827C1.7449 20.0339 1.08188 19.9999 0.558706 19.4835C0.0355359 18.967 -0.00684343 18.3043 0.0377415 17.7869C0.0798035 17.2999 0.223727 16.6955 0.381499 16.0325L0.713603 14.6361C0.884215 13.9179 1.01344 13.3735 1.2881 12.8819C1.56277 12.3902 1.95856 11.9947 2.48087 11.4731L10.6972 3.25684Z" fill="#EC6453"/>
<path d="M11.6527 17.4165C11.0954 17.4165 10.6436 17.8684 10.6436 18.4257C10.6436 18.9829 11.0954 19.4346 11.6527 19.4346H18.7158C19.2731 19.4346 19.7248 18.9829 19.7248 18.4257C19.7248 17.8684 19.2731 17.4165 18.7158 17.4165H11.6527Z" fill="#EC6453"/>
</svg>
