<svg width="24" height="24" viewBox="0 0 24 24" fill="none" xmlns="http://www.w3.org/2000/svg">
<path d="M10.75 14.4004C11.9926 14.4004 13 15.4078 13 16.6504V18.1524L12.9921 18.2608C12.6814 20.387 10.7715 21.4094 7.56679 21.4094C4.37361 21.4094 2.4333 20.3987 2.01446 18.297L2 18.1504V16.6504C2 15.4078 3.00736 14.4004 4.25 14.4004H10.75ZM7.5 6.40039C9.433 6.40039 11 7.96739 11 9.90039C11 11.8334 9.433 13.4004 7.5 13.4004C5.567 13.4004 4 11.8334 4 9.90039C4 7.96739 5.567 6.40039 7.5 6.40039ZM19.75 2.40039C20.9926 2.40039 22 3.40775 22 4.65039V8.15039C22 9.39303 20.9926 10.4004 19.75 10.4004H18.1972L15.6555 12.6075C15.2385 12.9695 14.6069 12.9249 14.2448 12.5079C14.0869 12.326 14 12.0932 14 11.8526L13.9993 10.3866C12.8747 10.2619 12 9.3083 12 8.15039V4.65039C12 3.40775 13.0074 2.40039 14.25 2.40039H19.75Z" fill="white"/>
</svg>
