<svg width="20" height="20" viewBox="0 0 20 20" fill="none" xmlns="http://www.w3.org/2000/svg">
<path d="M8.75 12.4004C9.99264 12.4004 11 13.4078 11 14.6504V16.1524L10.9921 16.2608C10.6814 18.387 8.77152 19.4094 5.56679 19.4094C2.37361 19.4094 0.433301 18.3987 0.0144627 16.297L0 16.1504V14.6504C0 13.4078 1.00736 12.4004 2.25 12.4004H8.75ZM5.5 4.40039C7.433 4.40039 9 5.96739 9 7.90039C9 9.83339 7.433 11.4004 5.5 11.4004C3.567 11.4004 2 9.83339 2 7.90039C2 5.96739 3.567 4.40039 5.5 4.40039ZM17.75 0.400391C18.9926 0.400391 20 1.40775 20 2.65039V6.15039C20 7.39303 18.9926 8.40039 17.75 8.40039H16.1972L13.6555 10.6075C13.2385 10.9695 12.6069 10.9249 12.2448 10.5079C12.0869 10.326 12 10.0932 12 9.85265L11.9993 8.38658C10.8747 8.26192 10 7.3083 10 6.15039V2.65039C10 1.40775 11.0074 0.400391 12.25 0.400391H17.75Z" fill="#026451"/>
</svg>
