<svg width="129" height="23" viewBox="0 0 129 23" fill="none" xmlns="http://www.w3.org/2000/svg">
<path d="M0.78 22V0.999999H4.23V22H0.78ZM3.15 13V9.85H13.83V13H3.15ZM3.15 4.15V0.999999H14.34V4.15H3.15ZM23.4555 22.3C22.0155 22.3 20.7155 21.98 19.5555 21.34C18.4155 20.68 17.5055 19.78 16.8255 18.64C16.1655 17.5 15.8355 16.22 15.8355 14.8C15.8355 13.38 16.1655 12.11 16.8255 10.99C17.4855 9.85 18.3755 8.95 19.4955 8.29C20.6355 7.63 21.8955 7.3 23.2755 7.3C24.6155 7.3 25.7955 7.61 26.8155 8.23C27.8555 8.85 28.6655 9.7 29.2455 10.78C29.8455 11.86 30.1455 13.09 30.1455 14.47C30.1455 14.71 30.1255 14.96 30.0855 15.22C30.0655 15.46 30.0255 15.73 29.9655 16.03H18.1455V13.33H28.2555L27.0255 14.41C26.9855 13.53 26.8155 12.79 26.5155 12.19C26.2155 11.59 25.7855 11.13 25.2255 10.81C24.6855 10.49 24.0155 10.33 23.2155 10.33C22.3755 10.33 21.6455 10.51 21.0255 10.87C20.4055 11.23 19.9255 11.74 19.5855 12.4C19.2455 13.04 19.0755 13.81 19.0755 14.71C19.0755 15.61 19.2555 16.4 19.6155 17.08C19.9755 17.76 20.4855 18.29 21.1455 18.67C21.8055 19.03 22.5655 19.21 23.4255 19.21C24.1655 19.21 24.8455 19.08 25.4655 18.82C26.1055 18.56 26.6455 18.18 27.0855 17.68L29.1855 19.81C28.4855 20.63 27.6355 21.25 26.6355 21.67C25.6355 22.09 24.5755 22.3 23.4555 22.3ZM39.4809 22.3C38.0409 22.3 36.7409 21.98 35.5809 21.34C34.4409 20.68 33.5309 19.78 32.8509 18.64C32.1909 17.5 31.8609 16.22 31.8609 14.8C31.8609 13.38 32.1909 12.11 32.8509 10.99C33.5109 9.85 34.4009 8.95 35.5209 8.29C36.6609 7.63 37.9209 7.3 39.3009 7.3C40.6409 7.3 41.8209 7.61 42.8409 8.23C43.8809 8.85 44.6909 9.7 45.2709 10.78C45.8709 11.86 46.1709 13.09 46.1709 14.47C46.1709 14.71 46.1509 14.96 46.1109 15.22C46.0909 15.46 46.0509 15.73 45.9909 16.03H34.1709V13.33H44.2809L43.0509 14.41C43.0109 13.53 42.8409 12.79 42.5409 12.19C42.2409 11.59 41.8109 11.13 41.2509 10.81C40.7109 10.49 40.0409 10.33 39.2409 10.33C38.4009 10.33 37.6709 10.51 37.0509 10.87C36.4309 11.23 35.9509 11.74 35.6109 12.4C35.2709 13.04 35.1009 13.81 35.1009 14.71C35.1009 15.61 35.2809 16.4 35.6409 17.08C36.0009 17.76 36.5109 18.29 37.1709 18.67C37.8309 19.03 38.5909 19.21 39.4509 19.21C40.1909 19.21 40.8709 19.08 41.4909 18.82C42.1309 18.56 42.6709 18.18 43.1109 17.68L45.2109 19.81C44.5109 20.63 43.6609 21.25 42.6609 21.67C41.6609 22.09 40.6009 22.3 39.4809 22.3ZM54.8463 22.3C53.5463 22.3 52.3663 21.97 51.3063 21.31C50.2663 20.65 49.4363 19.76 48.8163 18.64C48.2163 17.5 47.9163 16.23 47.9163 14.83C47.9163 13.41 48.2163 12.14 48.8163 11.02C49.4363 9.88 50.2663 8.98 51.3063 8.32C52.3663 7.64 53.5463 7.3 54.8463 7.3C55.9463 7.3 56.9163 7.54 57.7563 8.02C58.6163 8.48 59.2963 9.12 59.7963 9.94C60.2963 10.76 60.5463 11.69 60.5463 12.73V16.87C60.5463 17.91 60.2963 18.84 59.7963 19.66C59.3163 20.48 58.6463 21.13 57.7863 21.61C56.9263 22.07 55.9463 22.3 54.8463 22.3ZM55.3863 19.18C56.2063 19.18 56.9163 19 57.5163 18.64C58.1363 18.26 58.6163 17.74 58.9563 17.08C59.2963 16.42 59.4663 15.66 59.4663 14.8C59.4663 13.94 59.2963 13.18 58.9563 12.52C58.6163 11.86 58.1363 11.35 57.5163 10.99C56.9163 10.61 56.2063 10.42 55.3863 10.42C54.5863 10.42 53.8763 10.61 53.2563 10.99C52.6563 11.35 52.1763 11.86 51.8163 12.52C51.4763 13.18 51.3063 13.94 51.3063 14.8C51.3063 15.66 51.4763 16.42 51.8163 17.08C52.1763 17.74 52.6563 18.26 53.2563 18.64C53.8763 19 54.5863 19.18 55.3863 19.18ZM62.5563 22H59.2563V18.13L59.8263 14.62L59.2563 11.14V0.399999H62.5563V22ZM73.9287 22.3C72.8287 22.3 71.8487 22.07 70.9887 21.61C70.1287 21.13 69.4487 20.48 68.9487 19.66C68.4687 18.84 68.2287 17.91 68.2287 16.87V12.73C68.2287 11.69 68.4787 10.76 68.9787 9.94C69.4787 9.12 70.1587 8.48 71.0187 8.02C71.8787 7.54 72.8487 7.3 73.9287 7.3C75.2287 7.3 76.3987 7.64 77.4387 8.32C78.4987 8.98 79.3287 9.88 79.9287 11.02C80.5487 12.14 80.8587 13.41 80.8587 14.83C80.8587 16.23 80.5487 17.5 79.9287 18.64C79.3287 19.76 78.4987 20.65 77.4387 21.31C76.3987 21.97 75.2287 22.3 73.9287 22.3ZM73.3887 19.18C74.1887 19.18 74.8887 19 75.4887 18.64C76.1087 18.26 76.5887 17.74 76.9287 17.08C77.2887 16.42 77.4687 15.66 77.4687 14.8C77.4687 13.94 77.2887 13.18 76.9287 12.52C76.5887 11.86 76.1087 11.35 75.4887 10.99C74.8887 10.61 74.1887 10.42 73.3887 10.42C72.5887 10.42 71.8787 10.61 71.2587 10.99C70.6387 11.35 70.1587 11.86 69.8187 12.52C69.4787 13.18 69.3087 13.94 69.3087 14.8C69.3087 15.66 69.4787 16.42 69.8187 17.08C70.1587 17.74 70.6387 18.26 71.2587 18.64C71.8787 19 72.5887 19.18 73.3887 19.18ZM66.2187 22V0.399999H69.5187V11.14L68.9487 14.62L69.5187 18.13V22H66.2187ZM89.651 22.3C88.351 22.3 87.171 21.97 86.111 21.31C85.071 20.65 84.241 19.76 83.621 18.64C83.021 17.5 82.721 16.23 82.721 14.83C82.721 13.41 83.021 12.14 83.621 11.02C84.241 9.88 85.071 8.98 86.111 8.32C87.171 7.64 88.351 7.3 89.651 7.3C90.751 7.3 91.721 7.54 92.561 8.02C93.421 8.48 94.101 9.12 94.601 9.94C95.101 10.76 95.351 11.69 95.351 12.73V16.87C95.351 17.91 95.101 18.84 94.601 19.66C94.121 20.48 93.451 21.13 92.591 21.61C91.731 22.07 90.751 22.3 89.651 22.3ZM90.191 19.18C91.411 19.18 92.391 18.77 93.131 17.95C93.891 17.13 94.271 16.08 94.271 14.8C94.271 13.94 94.101 13.18 93.761 12.52C93.421 11.86 92.941 11.35 92.321 10.99C91.721 10.61 91.011 10.42 90.191 10.42C89.391 10.42 88.681 10.61 88.061 10.99C87.461 11.35 86.981 11.86 86.621 12.52C86.281 13.18 86.111 13.94 86.111 14.8C86.111 15.66 86.281 16.42 86.621 17.08C86.981 17.74 87.461 18.26 88.061 18.64C88.681 19 89.391 19.18 90.191 19.18ZM94.061 22V18.13L94.631 14.62L94.061 11.14V7.6H97.361V22H94.061ZM107.653 22.3C106.233 22.3 104.943 21.97 103.783 21.31C102.643 20.65 101.743 19.75 101.083 18.61C100.423 17.47 100.093 16.2 100.093 14.8C100.093 13.38 100.423 12.11 101.083 10.99C101.743 9.85 102.643 8.95 103.783 8.29C104.943 7.63 106.233 7.3 107.653 7.3C108.773 7.3 109.813 7.52 110.773 7.96C111.753 8.38 112.583 8.99 113.263 9.79L111.103 11.98C110.683 11.48 110.173 11.11 109.573 10.87C108.993 10.61 108.353 10.48 107.653 10.48C106.833 10.48 106.103 10.67 105.463 11.05C104.843 11.41 104.353 11.91 103.993 12.55C103.653 13.19 103.483 13.94 103.483 14.8C103.483 15.64 103.653 16.39 103.993 17.05C104.353 17.69 104.843 18.2 105.463 18.58C106.103 18.94 106.833 19.12 107.653 19.12C108.353 19.12 108.993 19 109.573 18.76C110.173 18.5 110.683 18.12 111.103 17.62L113.263 19.81C112.583 20.61 111.753 21.23 110.773 21.67C109.813 22.09 108.773 22.3 107.653 22.3ZM124.793 22L118.703 14.65L124.763 7.6H128.693L121.732 15.52L121.883 13.63L128.993 22H124.793ZM115.643 22V0.399999H118.943V22H115.643Z" fill="#026451"/>
</svg>
