<svg width="612" height="184" viewBox="0 0 612 184" fill="none" xmlns="http://www.w3.org/2000/svg">
<path d="M0.0120322 184V0.439992H40.832V184H0.0120322ZM31.212 111.98V76.88H122.992V111.98H31.212ZM31.212 35.54V0.439992H127.152V35.54H31.212ZM184.571 108.34V78.18H223.311C231.458 78.18 237.698 76.1 242.031 71.94C246.538 67.78 248.791 62.1467 248.791 55.04C248.791 48.4533 246.625 42.9933 242.291 38.66C237.958 34.3267 231.718 32.16 223.571 32.16H184.571V0.439992H228.251C240.385 0.439992 251.045 2.77999 260.231 7.45999C269.418 11.9667 276.611 18.2933 281.811 26.44C287.011 34.5867 289.611 43.9467 289.611 54.52C289.611 65.2667 287.011 74.7133 281.811 82.86C276.611 90.8333 269.331 97.0733 259.971 101.58C250.611 106.087 239.605 108.34 226.951 108.34H184.571ZM153.371 184V0.439992H194.191V184H153.371ZM253.211 184L196.011 104.96L233.451 94.82L301.571 184H253.211ZM319.426 184V0.439992H360.246V184H319.426ZM350.626 184V148.64H451.246V184H350.626ZM350.626 107.3V73.24H442.146V107.3H350.626ZM350.626 35.54V0.439992H449.946V35.54H350.626ZM479.387 184V0.439992H520.207V184H479.387ZM510.587 184V148.64H611.207V184H510.587ZM510.587 107.3V73.24H602.107V107.3H510.587ZM510.587 35.54V0.439992H609.907V35.54H510.587Z" fill="#111827"/>
</svg>
