<svg width="441" height="284" viewBox="0 0 441 284" fill="none" xmlns="http://www.w3.org/2000/svg">
<g clip-path="url(#clip0_1112_1469)">
<path d="M129.689 70.275C129.735 72.0121 131.59 113.127 90.4188 120.269C42.8081 128.528 21.3781 146.09 23.9115 169.164C26.4449 192.238 51.4549 269.815 205.697 281.238C357.35 292.47 400.767 221.489 420.431 188.089C439.074 156.423 456.354 88.1425 414.549 63.42C372.745 38.6976 349.438 79.4632 302.608 35.6637C236.887 -25.8028 127.789 -2.79303 129.689 70.275Z" fill="#ECF1F7"/>
<path d="M402.511 252.403C402.511 252.403 397.194 250.499 387.684 255.865C376.488 262.183 363.377 274.955 376.603 281.721C389.829 288.488 403.237 275.51 406.416 272.409C412.651 266.325 414.942 255.188 402.511 252.403Z" fill="#ECF1F7"/>
<path d="M14.2044 32.7748C14.2044 32.7748 -6.70951 52.9302 2.58541 73.5901C11.8803 94.25 45.5753 104.327 74.0418 70.567C102.508 36.8063 67.0703 18.1625 67.0703 18.1625C67.0703 18.1625 38.6038 4.05332 14.2044 32.7748Z" fill="#ECF1F7"/>
<path d="M115.318 227.294V94.8552C115.318 88.8436 120.198 83.9709 126.217 83.9709H347.557C353.577 83.9709 358.456 88.8444 358.456 94.8552V227.294C358.456 233.306 353.576 238.179 347.557 238.179H126.217C120.198 238.179 115.318 233.306 115.318 227.294Z" fill="#026451"/>
<path d="M223.569 212.079H157.624C153.787 212.079 150.676 208.973 150.676 205.142V118.087C150.676 114.255 153.787 111.149 157.624 111.149H223.569C227.405 111.149 230.516 114.255 230.516 118.087V205.141C230.516 208.973 227.405 212.079 223.569 212.079Z" stroke="white" stroke-width="1.2" stroke-miterlimit="10"/>
<path d="M164.969 121.88L166.355 124.685L169.455 125.134L167.212 127.318L167.741 130.401L164.969 128.945L162.197 130.401L162.726 127.318L160.483 125.134L163.583 124.685L164.969 121.88Z" fill="white"/>
<path d="M177.421 121.88L178.808 124.685L181.907 125.134L179.664 127.318L180.194 130.401L177.421 128.945L174.649 130.401L175.179 127.318L172.936 125.134L176.036 124.685L177.421 121.88Z" fill="white"/>
<path d="M189.873 121.88L191.259 124.685L194.359 125.134L192.116 127.318L192.646 130.401L189.873 128.945L187.101 130.401L187.63 127.318L185.388 125.134L188.487 124.685L189.873 121.88Z" fill="white"/>
<path d="M202.326 121.88L203.712 124.685L206.811 125.134L204.568 127.318L205.098 130.401L202.326 128.945L199.553 130.401L200.083 127.318L197.84 125.134L200.94 124.685L202.326 121.88Z" fill="white"/>
<path d="M214.778 121.88L216.165 124.685L219.264 125.134L217.021 127.318L217.551 130.401L214.778 128.945L212.006 130.401L212.535 127.318L210.293 125.134L213.392 124.685L214.778 121.88Z" fill="white"/>
<path d="M213.783 200.448H165.965C162.089 200.448 158.946 197.309 158.946 193.438C158.946 189.566 162.089 186.428 165.965 186.428H213.783C217.66 186.428 220.802 189.566 220.802 193.438C220.802 197.309 217.66 200.448 213.783 200.448Z" fill="white"/>
<path d="M158.946 166.812H220.802" stroke="white" stroke-width="1.2" stroke-miterlimit="10"/>
<path d="M158.946 156.333H189.875" stroke="white" stroke-width="1.2" stroke-miterlimit="10"/>
<path d="M158.946 145.853H220.802" stroke="white" stroke-width="1.2" stroke-miterlimit="10"/>
<path d="M158.946 176.62H190.597" stroke="white" stroke-width="1.2" stroke-miterlimit="10"/>
<path d="M313.174 211.639H251.457C248.122 211.639 245.418 208.939 245.418 205.608V187.606C245.418 184.275 248.122 181.574 251.457 181.574H313.175C316.51 181.574 319.214 184.274 319.214 187.605V205.607C319.214 208.939 316.51 211.639 313.174 211.639Z" fill="white"/>
<path d="M296.42 168.407H250.769C247.813 168.407 245.417 166.014 245.417 163.062V137.028C245.417 134.076 247.813 131.683 250.769 131.683H296.42C299.376 131.683 301.772 134.076 301.772 137.028V163.062C301.772 166.014 299.376 168.407 296.42 168.407Z" stroke="white" stroke-width="1.2" stroke-miterlimit="10"/>
<path d="M293.934 157.533H252.656C251.714 157.533 250.95 156.77 250.95 155.829C250.95 154.888 251.714 154.125 252.656 154.125H293.934C294.876 154.125 295.641 154.888 295.641 155.829C295.641 156.77 294.877 157.533 293.934 157.533Z" fill="white"/>
<path d="M293.934 146.317H252.656C251.714 146.317 250.95 145.555 250.95 144.613C250.95 143.673 251.714 142.909 252.656 142.909H293.934C294.876 142.909 295.641 143.672 295.641 144.613C295.641 145.554 294.877 146.317 293.934 146.317Z" fill="white"/>
<path d="M260.302 144.161C260.599 146.097 258.953 147.74 257.015 147.444C255.807 147.259 254.819 146.273 254.634 145.067C254.338 143.131 255.983 141.487 257.922 141.783C259.13 141.968 260.118 142.954 260.302 144.161Z" fill="white"/>
<path d="M273.771 230.747L265.796 234.539L268.555 242.243L276.98 238.326L273.771 230.747Z" fill="#F09C98"/>
<path d="M265.99 231.695L260.086 233.803L253.838 224.064C252.263 222.217 249.756 221.452 247.416 222.104L246.041 222.464L256.647 251.906L270.497 243.962L265.99 231.695Z" fill="#12AA5B"/>
<path d="M249.077 221.878L259.288 250.391" stroke="#4D2D3C" stroke-width="0.8665" stroke-miterlimit="10"/>
<path d="M263.888 244.971C262.191 245.577 260.324 244.694 259.718 243C259.111 241.305 259.994 239.441 261.691 238.835C263.388 238.229 265.255 239.112 265.862 240.806C266.469 242.5 265.585 244.365 263.888 244.971Z" stroke="#4D2D3C" stroke-width="0.8665" stroke-miterlimit="10"/>
<path d="M256.973 228.951L255.73 231.477" stroke="#4D2D3C" stroke-width="0.8665" stroke-miterlimit="10"/>
<path d="M258.597 231.487L257.354 234.014" stroke="#4D2D3C" stroke-width="0.8665" stroke-miterlimit="10"/>
<path d="M279.927 241.37L273.771 225.956L310.486 207.436C313.684 205.855 317.314 205.371 320.816 206.059L358.391 214.358L345.813 230.384L317.35 222.973L279.927 241.37Z" fill="#02B961"/>
<path d="M279.308 244.672L269.273 225.918L277.449 221.47L287.673 240.082L279.308 244.672Z" fill="#026451"/>
<path d="M288.594 240.986L281.641 246.426L286.019 253.343L293.384 247.681L288.594 240.986Z" fill="#F09C98"/>
<path d="M281.208 243.608L275.908 246.953L267.681 238.813C265.74 237.354 263.127 237.155 260.986 238.301L259.723 238.952L276.512 265.37L288.291 254.596L281.208 243.608Z" fill="#12AA5B"/>
<path d="M262.557 237.718L278.757 263.316" stroke="#4D2D3C" stroke-width="0.8665" stroke-miterlimit="10"/>
<path d="M282.062 257.022C280.539 257.984 278.524 257.53 277.561 256.009C276.598 254.488 277.053 252.476 278.576 251.514C280.099 250.552 282.114 251.007 283.077 252.527C284.039 254.048 283.585 256.061 282.062 257.022Z" stroke="#4D2D3C" stroke-width="0.8665" stroke-miterlimit="10"/>
<path d="M271.809 242.897L271.149 245.633" stroke="#4D2D3C" stroke-width="0.8665" stroke-miterlimit="10"/>
<path d="M273.949 245.018L273.289 247.754" stroke="#4D2D3C" stroke-width="0.8665" stroke-miterlimit="10"/>
<path d="M372.048 218L349.795 210.524L349.201 214.93L329.486 206.511C326.138 205.081 322.268 205.668 319.496 208.026L286.218 236.545L297.642 250.576L324.571 227.931L345.694 239.104C347.543 240.196 349.539 241.018 351.632 241.502C357.681 242.903 369.068 243.792 370.753 231.289C373.063 214.138 372.048 218 372.048 218Z" fill="#12AA5B"/>
<path d="M296.388 253.889L282.846 237.48L289.983 231.51L303.681 247.74L296.388 253.889Z" fill="#026451"/>
<path d="M354.547 192.817C357.23 191.293 358.287 187.963 356.974 185.173C355.555 182.161 351.928 180.914 348.955 182.418C346.828 183.495 343.465 185.838 339.916 188.364L347.006 198.226L354.547 192.817Z" fill="white"/>
<path d="M347.093 198.163L339.917 188.363C335.22 191.708 333.119 193.321 330.184 194.815C326.875 196.501 325.71 200.647 327.656 203.807C329.453 206.723 333.241 207.693 336.222 206.001L347.093 198.163Z" fill="#FCA684"/>
<path d="M348.18 197.384L347.7 191.248L347.093 198.164L348.18 197.384Z" fill="#DB4271"/>
<path d="M317.264 176.695L336.359 197.794C338.319 200.095 337.956 203.565 335.562 205.412C333.141 207.28 329.643 206.719 327.93 204.187L312.748 181.329L317.264 176.695Z" fill="#FCA684"/>
<path d="M311.623 182.661C313.96 184.552 317.39 184.193 319.283 181.859C321.176 179.525 320.817 176.1 318.479 174.209C316.142 172.319 312.713 172.678 310.82 175.012C308.927 177.346 309.286 180.77 311.623 182.661Z" fill="#FCA684"/>
<path d="M315.627 173.328C315.627 173.328 316.11 171.237 318.462 172.859C320.814 174.48 322.39 177.351 319.283 181.859L315.627 173.328Z" fill="#FCA684"/>
<path d="M317.357 163.002L311.375 162.278C311.043 162.237 310.762 162.496 310.748 162.854L310.161 178.23C310.147 178.588 310.405 178.911 310.738 178.952L316.719 179.675C317.052 179.716 317.333 179.458 317.347 179.099L317.934 163.723C317.948 163.365 317.689 163.042 317.357 163.002Z" fill="#37305E"/>
<path d="M318.51 163.141L312.529 162.417C312.196 162.377 311.915 162.635 311.902 162.993L311.314 178.369C311.3 178.728 311.559 179.05 311.891 179.091L317.873 179.815C318.205 179.855 318.486 179.597 318.5 179.239L319.087 163.862C319.101 163.504 318.842 163.181 318.51 163.141Z" fill="#261C42"/>
<path d="M318.349 164.646L313.094 164.011L312.614 176.542L317.87 177.179L318.349 164.646Z" fill="#E9E9E9"/>
<path d="M354.385 181.183L349.707 182.454C348.955 182.662 347.307 186.523 347.239 187.3L349.626 212.9L370.543 216.382L371.035 186.026C371.259 184.641 370.37 182.825 368.996 182.532L360.812 181.282L354.385 181.183Z" fill="white"/>
<path d="M369.564 210.344L364.848 193.808V211.261L369.564 210.344Z" fill="#DB4271"/>
<path d="M377.766 195.543L366.394 199.872C368.155 205.358 370.127 211.255 370.66 214.502C371.261 218.163 374.862 220.532 378.469 219.641C381.798 218.818 383.874 215.509 383.166 212.158L377.766 195.543Z" fill="#FCA684"/>
<path d="M375.089 187.307C374.451 184.291 371.596 182.272 368.536 182.674C365.233 183.108 364.317 190.521 364.848 193.807C365.228 196.159 365.063 195.727 366.395 199.872L377.767 195.543L375.089 187.307Z" fill="white"/>
<path d="M348.331 213.845L376.466 209.444C379.467 209.067 382.175 211.271 382.411 214.283C382.65 217.329 380.265 219.944 377.206 219.99L349.74 220.157L348.331 213.845Z" fill="#FCA684"/>
<path d="M350.241 221.825C353.105 220.908 354.682 217.846 353.764 214.986C352.845 212.125 349.779 210.551 346.915 211.467C344.051 212.385 342.474 215.447 343.392 218.307C344.31 221.167 347.376 222.742 350.241 221.825Z" fill="#FCA684"/>
<path d="M344.615 213.369C344.615 213.369 343.128 211.821 345.774 210.743C348.42 209.665 351.688 209.921 353.764 214.986L344.615 213.369Z" fill="#FCA684"/>
<path d="M350.326 156.505C350.326 156.505 363.439 155.401 366.194 160.076C368.949 164.752 366.834 172.465 360.788 174.992C355.028 177.4 356.313 158.483 356.313 158.483L350.326 156.505Z" fill="#611225"/>
<path d="M355.985 156.444C355.985 156.444 345.775 152.968 344.861 160.043C344.251 164.76 351.935 166.547 351.935 166.547L355.985 156.444Z" fill="#611225"/>
<path d="M351.791 168.225C351.953 169.782 350.82 171.174 349.261 171.336C347.702 171.497 346.308 170.366 346.146 168.809C345.985 167.252 347.118 165.86 348.676 165.698C350.235 165.537 351.63 166.668 351.791 168.225Z" fill="#D17A62"/>
<path d="M353.218 176.117L353.819 182.265C354.025 184.423 355.468 185.451 357.595 185.231C359.41 185.043 361.017 183.931 361.056 182.109L359.644 172.481L353.218 176.117Z" fill="#FCA684"/>
<path d="M353.662 181.243L360.633 173.951L353.144 175.488L353.662 181.243Z" fill="#D17A62"/>
<path d="M355.128 177.05C351.485 177.184 348.378 174.419 348.168 171.451L347.717 164.446C347.454 160.725 350.194 157.468 353.908 157.083C357.71 156.69 361.779 159.38 362.173 163.178L362.475 168.817C362.709 173.177 359.478 176.599 355.128 177.05Z" fill="#FCA684"/>
<path d="M349.369 159.459C349.369 159.459 348.6 164.125 361.588 164.651C361.863 164.662 366.321 157.356 355.985 156.444C355.985 156.444 352.493 155.517 349.369 159.459Z" fill="#611225"/>
<path d="M357.781 163.267L360.93 168.012L364.619 163.409L357.781 163.267Z" fill="#611225"/>
<path d="M365.85 167.898C366.011 169.454 364.878 170.847 363.32 171.009C361.761 171.17 360.366 170.039 360.205 168.482C360.043 166.925 361.176 165.533 362.735 165.371C364.294 165.21 365.689 166.341 365.85 167.898Z" fill="#FCA684"/>
<path d="M362.129 169.13C362.129 169.13 361.916 167.087 363.906 167.205" stroke="#611225" stroke-width="0.5094" stroke-miterlimit="10" stroke-linecap="round" stroke-linejoin="round"/>
<path d="M351.907 168.857L351.755 170.602L352.657 170.604" stroke="#611225" stroke-width="0.5094" stroke-miterlimit="10" stroke-linecap="round" stroke-linejoin="round"/>
<path d="M355.743 165.151C355.743 165.151 354.203 165.077 354.209 165.702C354.209 165.702 354.224 166.124 355.567 166.163C356.909 166.201 357.253 166.092 357.362 165.691C357.471 165.29 356.462 165.13 355.743 165.151Z" fill="#611225"/>
<path d="M349.566 165.527C349.566 165.527 350.829 165.354 350.952 165.937C350.952 165.937 351.026 166.332 349.919 166.459C348.813 166.586 348.447 166.457 348.331 166.14C348.201 165.781 348.964 165.557 349.566 165.527Z" fill="#611225"/>
<path d="M350.533 168.234C350.557 168.589 350.288 168.896 349.933 168.919C349.578 168.943 349.27 168.674 349.247 168.32C349.223 167.965 349.492 167.658 349.847 167.634C350.202 167.61 350.51 167.879 350.533 168.234Z" fill="#611225"/>
<path d="M355.937 167.874C355.961 168.229 355.691 168.536 355.336 168.56C354.981 168.584 354.674 168.315 354.65 167.96C354.626 167.606 354.895 167.298 355.25 167.275C355.606 167.251 355.914 167.52 355.937 167.874Z" fill="#611225"/>
<path d="M351.958 171.973C351.958 171.973 354.014 172.574 354.8 171.291" stroke="#611225" stroke-width="0.5094" stroke-miterlimit="10" stroke-linecap="round" stroke-linejoin="round"/>
<path d="M375.198 162.026C377.623 159.249 377.334 155.034 374.554 152.613C371.773 150.191 367.553 150.479 365.128 153.257C362.703 156.034 362.992 160.248 365.773 162.67C368.553 165.091 372.773 164.803 375.198 162.026Z" fill="#611225"/>
<path d="M12.9289 212.008C15.286 212.008 17.1968 210.073 17.1968 207.686C17.1968 205.299 15.286 203.364 12.9289 203.364C10.5719 203.364 8.66113 205.299 8.66113 207.686C8.66113 210.073 10.5719 212.008 12.9289 212.008Z" fill="#026451"/>
<path d="M360.892 30.1033C360.892 31.8427 359.499 33.2518 357.782 33.2518C356.065 33.2518 354.673 31.8419 354.673 30.1033C354.673 28.3647 356.065 26.9548 357.782 26.9548C359.499 26.9548 360.892 28.3647 360.892 30.1033Z" fill="#026451"/>
<path d="M434.279 207.686C434.279 209.426 432.887 210.835 431.17 210.835C429.453 210.835 428.061 209.425 428.061 207.686C428.061 205.948 429.453 204.538 431.17 204.538C432.887 204.537 434.279 205.947 434.279 207.686Z" fill="#026451"/>
<path d="M246.474 36.6525H191.816C190.819 36.6525 190.012 35.8459 190.012 34.8505V20.231C190.012 19.2355 190.819 18.429 191.816 18.429H246.474C247.471 18.429 248.279 19.2355 248.279 20.231V34.8505C248.278 35.8459 247.47 36.6525 246.474 36.6525Z" fill="#12AA5B"/>
<path d="M196.936 34.5911V42.9921L205.88 34.5911H196.936Z" fill="#12AA5B"/>
<path d="M396.943 133.889C407.646 133.889 416.322 125.225 416.322 114.536C416.322 103.848 407.646 95.1831 396.943 95.1831C386.241 95.1831 377.564 103.848 377.564 114.536C377.564 125.225 386.241 133.889 396.943 133.889Z" fill="#12AA5B"/>
<path d="M393.915 121.374C396.986 121.426 400.095 121.468 402.92 121.273C403.814 121.211 404.586 119.792 403.501 119.345C403.957 119.11 404.421 118.885 404.62 118.373C404.809 117.889 404.582 117.231 404.077 117.107C405.142 117.37 405.562 115.682 404.731 115.137C405.17 114.763 405.536 114.268 405.629 113.699C405.722 113.129 405.488 112.486 404.981 112.211C404.648 112.03 404.252 112.023 403.874 112.02C402.596 112.01 401.319 112.001 400.042 111.991C400.388 109.995 400.492 107.82 399.476 106.067C399.17 105.538 398.348 104.905 397.695 105.312C397.083 105.693 397.254 106.64 397.284 107.237C397.412 109.72 395.997 112.218 393.801 113.388C393.802 113.387 393.947 118.676 393.915 121.374Z" fill="#FEFEFE"/>
<path d="M392.801 113.386H388.159V121.366H392.801V113.386Z" fill="#FEFEFE"/>
<path d="M152.074 65.9824H125.474C122.465 65.9824 120.026 63.5468 120.026 60.5424V34.3481C120.026 32.0041 121.93 30.1033 124.277 30.1033H152.074C154.421 30.1033 156.324 32.0033 156.324 34.3481V61.7375C156.324 64.0816 154.421 65.9824 152.074 65.9824Z" fill="white"/>
<path d="M20.3432 130.569H41.3098V119.976C41.3098 119.098 40.5967 118.386 39.7176 118.386H20.3432C19.4641 118.386 18.751 119.098 18.751 119.976V128.979C18.751 129.857 19.4641 130.569 20.3432 130.569Z" fill="#12AA5B"/>
<path d="M41.3088 128.049L41.3254 133.432L36.7227 128.063L41.3088 128.049Z" fill="#12AA5B"/>
<path d="M325.81 118.597H259.03C257.012 118.597 255.376 116.963 255.376 114.947V49.2105C255.376 47.1951 257.012 45.561 259.03 45.561H325.81C327.828 45.561 329.464 47.1951 329.464 49.2105V114.947C329.464 116.963 327.828 118.597 325.81 118.597Z" fill="white"/>
<path d="M78.1683 132.205L61.7899 175.169C61.2594 178.624 61.6232 183.173 65.3425 186.21C65.9271 186.687 66.5846 187.069 67.2609 187.405L102.355 203.542L101.833 184.265L81.3592 174.462L99.5124 135.579L78.1683 132.205Z" fill="#02B961"/>
<path d="M93.6772 196.746L101.859 195.899L101.84 188.278L93.2246 189.096L93.6772 196.746Z" fill="#F09C98"/>
<path d="M100.802 198.334L106.641 198.321L109.087 208.811C109.893 210.923 111.854 212.374 114.111 212.529L115.43 212.642L115.305 183.503L100.671 186.166L100.802 198.334Z" fill="#12AA5B"/>
<path d="M112.582 212.211L112.515 184.01" stroke="#4D2D3C" stroke-width="0.8069" stroke-miterlimit="10"/>
<path d="M106.786 187.336C108.464 187.332 109.828 188.688 109.831 190.364C109.836 192.04 108.479 193.401 106.801 193.405C105.123 193.409 103.759 192.054 103.755 190.379C103.751 188.702 105.108 187.341 106.786 187.336Z" stroke="#4D2D3C" stroke-width="0.8069" stroke-miterlimit="10"/>
<path d="M107.859 203.547L109.737 201.716" stroke="#4D2D3C" stroke-width="0.8069" stroke-miterlimit="10"/>
<path d="M107.225 200.816L109.103 198.985" stroke="#4D2D3C" stroke-width="0.8069" stroke-miterlimit="10"/>
<path d="M95.7422 216.493L96.5701 224.666H104.201L103.403 216.06L95.7422 216.493Z" fill="#F09C98"/>
<path d="M94.1337 223.605V229.436L83.6233 231.854C81.5071 232.654 80.0499 234.609 79.8889 236.862L79.7734 238.179L108.951 238.125L106.319 223.504L94.1337 223.605Z" fill="#12AA5B"/>
<path d="M80.2109 235.337H108.449" stroke="#4D2D3C" stroke-width="0.8069" stroke-miterlimit="10"/>
<path d="M105.132 229.608C105.132 231.284 103.771 232.642 102.093 232.642C100.415 232.642 99.0547 231.284 99.0547 229.608C99.0547 227.932 100.415 226.574 102.093 226.574C103.771 226.574 105.132 227.932 105.132 229.608Z" stroke="#4D2D3C" stroke-width="0.8069" stroke-miterlimit="10"/>
<path d="M88.8965 230.64L90.7255 232.52" stroke="#4D2D3C" stroke-width="0.8069" stroke-miterlimit="10"/>
<path d="M91.6338 230.013L93.462 231.893" stroke="#4D2D3C" stroke-width="0.8069" stroke-miterlimit="10"/>
<path d="M83.893 132.205L84.0143 133.685L77.8027 133.163L85.4672 151.437L90.9266 218.133L107.673 217.514L108.589 132.205H83.893Z" fill="#12AA5B"/>
<path d="M77.2007 115.896C67.9671 110.247 55.0561 100.104 55.0561 100.104L50.2246 104.655L70.3056 125.376C73.1443 127.794 77.4915 126.997 79.2851 123.729C80.7936 120.98 79.8777 117.533 77.2007 115.896Z" fill="#FCA684"/>
<path d="M47.5795 105.772C50.1201 107.362 53.4706 106.594 55.0628 104.056C56.655 101.519 55.8863 98.1731 53.345 96.583C50.8044 94.9929 47.4539 95.7606 45.8617 98.2985C44.2695 100.836 45.0382 104.182 47.5795 105.772Z" fill="#FCA684"/>
<path d="M49.3828 95.8671C49.3828 95.8671 50.0209 93.4784 52.5442 94.8003C55.0667 96.1216 57.5944 99.2218 55.0638 104.057L49.3828 95.8671Z" fill="#FCA684"/>
<path d="M44.1356 84.0414L38.0194 86.9031C37.6794 87.0624 37.5654 87.474 37.766 87.8228L46.3565 102.786C46.5564 103.135 46.9946 103.289 47.3352 103.129L53.4515 100.268C53.7914 100.108 53.9055 99.6968 53.7048 99.3479L45.1144 84.3846C44.9137 84.0357 44.4756 83.8821 44.1356 84.0414Z" fill="#37305E"/>
<path d="M44.8251 83.6992L38.7088 86.5608C38.3689 86.7201 38.2548 87.1317 38.4555 87.4798L47.046 102.443C47.2459 102.792 47.684 102.946 48.024 102.786L54.1402 99.9247C54.4802 99.7654 54.5942 99.3538 54.3936 99.0056L45.8031 84.0423C45.6039 83.6934 45.1658 83.5399 44.8251 83.6992Z" fill="#261C42"/>
<path d="M45.5686 85.2258L40.1943 87.74L47.1955 99.9355L52.5698 97.4205L45.5686 85.2258Z" fill="#E9E9E9"/>
<path d="M89.5302 103.14L79.2638 123.74C78.1169 126.041 75.4579 127.24 72.9346 126.594C69.8599 125.806 68.1688 122.617 69.276 119.694L77.3742 98.3252L89.5302 103.14Z" fill="#FCA684"/>
<path d="M79.6992 104.477L80.1626 97.4609L76.6699 103.192L79.6992 104.477Z" fill="#EDEDED"/>
<path d="M114.528 98.9495L117.657 121.746C118.006 124.293 116.484 126.779 114.035 127.664C111.05 128.741 107.854 127.057 107.122 124.019L101.768 101.805L114.528 98.9495Z" fill="#FCA684"/>
<path d="M106.547 119.934C101.749 129.628 93.3672 146.245 93.3672 146.245L98.3431 150.639L116.625 125.934C118.78 122.891 117.591 118.64 114.17 117.152C111.292 115.9 107.938 117.123 106.547 119.934Z" fill="#FCA684"/>
<path d="M99.6947 153.169C101.051 150.498 99.982 147.235 97.3078 145.881C94.6337 144.527 91.3662 145.594 90.01 148.264C88.6538 150.935 89.7228 154.198 92.3969 155.553C95.0718 156.907 98.3385 155.839 99.6947 153.169Z" fill="#FCA684"/>
<path d="M89.6544 152.271C89.6544 152.271 87.2149 151.853 88.3047 149.224C89.3946 146.595 92.2571 143.801 97.3081 145.881L89.6544 152.271Z" fill="#FCA684"/>
<path d="M85.9759 77.0174C86.3656 78.5837 85.41 80.1688 83.8416 80.5573C82.2732 80.9466 80.686 79.9922 80.297 78.4259C79.9073 76.8596 80.8629 75.2745 82.4313 74.886C83.999 74.4975 85.5861 75.4518 85.9759 77.0174Z" fill="#D17A62"/>
<path d="M87.2441 81.513L89.6137 91.6577C90.2979 94.5056 92.3037 94.2346 95.1056 93.5397C97.4976 92.9465 99.3698 91.7391 99.0775 89.2956L96.887 78.2397L87.2441 81.513Z" fill="#FCA684"/>
<path d="M89.1609 89.741L95.3522 82.1638L87.8018 83.9399L89.1609 89.741Z" fill="#D17A62"/>
<path d="M92.9766 84.3745L89.0061 85.3599C86.0245 86.0994 83.0227 84.2268 82.3803 81.226L80.8025 73.8622C79.9977 70.1017 82.3247 66.3816 86.0613 65.4554C89.8867 64.5061 94.4288 66.6678 95.3786 70.4881L96.8864 78.2404C97.4284 80.9983 95.7085 83.697 92.9766 84.3745Z" fill="#FCA684"/>
<path d="M95.3848 74.9089C95.3848 74.9089 90.1094 76.8645 91.5205 70.1076C91.5205 70.1076 89.9153 68.2948 86.4183 70.0687C82.9214 71.8426 79.2266 72.456 78.0797 69.6218C76.9336 66.7868 78.987 62.1686 86.6024 63.19C86.6024 63.19 89.2967 63.5482 91.4483 64.6496C93.5992 65.7503 96.4596 65.1254 97.3899 67.881C98.3123 70.6122 97.9399 75.637 95.3848 74.9089Z" fill="#611225"/>
<path d="M99.8499 73.8602C100.24 75.4265 99.284 77.0116 97.7156 77.4001C96.1472 77.7893 94.5601 76.835 94.171 75.2687C93.7813 73.7023 94.7369 72.1173 96.3053 71.7288C97.873 71.3402 99.4601 72.2946 99.8499 73.8602Z" fill="#FCA684"/>
<path d="M96.2275 75.6544C96.2275 75.6544 95.7165 73.5987 97.7649 73.4336" stroke="#611225" stroke-width="0.5157" stroke-miterlimit="10" stroke-linecap="round" stroke-linejoin="round"/>
<path d="M85.502 78.1404L85.7142 79.6591L86.6243 79.4335" stroke="#611225" stroke-width="0.5157" stroke-miterlimit="10" stroke-linecap="round" stroke-linejoin="round"/>
<path d="M84.1425 77.268C84.2241 77.596 84.0241 77.9276 83.6957 78.0083C83.3673 78.0898 83.0353 77.8901 82.9538 77.5621C82.8722 77.2342 83.0721 76.9026 83.4005 76.8211C83.7289 76.7397 84.061 76.9401 84.1425 77.268Z" fill="#611225"/>
<path d="M88.9452 76.0766C89.0268 76.4046 88.8269 76.7362 88.4985 76.8169C88.1701 76.8984 87.8381 76.6987 87.7565 76.3707C87.6749 76.0428 87.8749 75.7112 88.2033 75.6297C88.5317 75.549 88.8637 75.7487 88.9452 76.0766Z" fill="#611225"/>
<path d="M87.9089 72.5915C87.9089 72.5915 86.3195 72.74 86.487 73.5689C86.487 73.5689 86.6126 74.1276 87.9918 73.9639C89.3711 73.8003 89.6945 73.5985 89.7017 73.0485C89.7089 72.4978 88.6378 72.4488 87.9089 72.5915Z" fill="#611225"/>
<path d="M82.368 73.9179C82.368 73.9179 83.6109 73.4854 83.888 74.2394C83.888 74.2394 84.0656 74.7519 82.9699 75.0979C81.8743 75.4438 81.4679 75.3321 81.2673 74.9299C81.0407 74.4744 81.7617 74.0541 82.368 73.9179Z" fill="#611225"/>
</g>
<defs>
<clipPath id="clip0_1112_1469">
<rect width="441" height="284" fill="white"/>
</clipPath>
</defs>
</svg>
