<svg width="24" height="25" viewBox="0 0 24 25" fill="none" xmlns="http://www.w3.org/2000/svg">
<path fill-rule="evenodd" clip-rule="evenodd" d="M18.9217 11.3746H6.91943C6.29843 11.3746 5.79443 11.8786 5.79443 12.4996C5.79443 13.1206 6.29843 13.6246 6.91943 13.6246H18.9479L16.6124 15.9601C16.1737 16.3988 16.1737 17.1121 16.6124 17.5508C17.0519 17.9903 17.7644 17.9903 18.2039 17.5508C18.2039 17.5508 20.1292 15.6256 21.3854 14.3693C22.4107 13.3441 22.4107 11.6821 21.3854 10.6568L18.2039 7.47457C17.7644 7.03582 17.0519 7.03582 16.6124 7.47457C16.1737 7.91407 16.1737 8.62657 16.6124 9.06607L18.9217 11.3746Z" fill="#FF0000"/>
<path fill-rule="evenodd" clip-rule="evenodd" d="M15 18.5V15.125H6.9195C5.4705 15.125 4.2945 13.949 4.2945 12.5C4.2945 11.051 5.4705 9.875 6.9195 9.875H15V6.5C15 4.42925 13.3208 2.75 11.25 2.75C9.6255 2.75 7.6245 2.75 6 2.75C5.0055 2.75 4.0515 3.14525 3.348 3.848C2.64525 4.5515 2.25 5.5055 2.25 6.5C2.25 9.82925 2.25 15.1707 2.25 18.5C2.25 19.4945 2.64525 20.4485 3.348 21.152C4.0515 21.8547 5.0055 22.25 6 22.25C7.6245 22.25 9.6255 22.25 11.25 22.25C12.2445 22.25 13.1985 21.8547 13.902 21.152C14.6047 20.4485 15 19.4945 15 18.5Z" fill="#FF0000"/>
</svg>
