<svg width="210" height="58" viewBox="0 0 210 58" fill="none" xmlns="http://www.w3.org/2000/svg">
<rect width="210" height="58" rx="29" fill="white" fill-opacity="0.1"/>
<g clip-path="url(#clip0_1111_855)">
<path d="M33.6377 28.1126C33.4024 27.8772 33.0831 27.745 32.7502 27.745C32.4174 27.745 32.0981 27.8772 31.8627 28.1126C31.6274 28.348 31.4951 28.6672 31.4951 29.0001C31.4951 29.333 31.6274 29.6522 31.8627 29.8876L35.6127 33.6376C35.7295 33.7535 35.8681 33.8451 36.0203 33.9073C36.1726 33.9695 36.3357 34.0011 36.5002 34.0001C36.6714 33.9947 36.8395 33.9542 36.9944 33.8811C37.1492 33.8079 37.2873 33.7038 37.4002 33.5751L46.1502 23.5751C46.3523 23.3243 46.4497 23.0051 46.4222 22.6842C46.3946 22.3633 46.2443 22.0654 46.0025 21.8526C45.7607 21.6398 45.4461 21.5286 45.1243 21.5421C44.8025 21.5556 44.4983 21.6928 44.2752 21.9251L36.5002 30.9251L33.6377 28.1126Z" fill="#026451"/>
<path d="M47.7495 27.75C47.418 27.75 47.1001 27.8817 46.8656 28.1161C46.6312 28.3505 46.4995 28.6685 46.4995 29C46.4995 31.6522 45.446 34.1957 43.5706 36.0711C41.6952 37.9464 39.1517 39 36.4995 39C34.5246 38.9991 32.5942 38.4135 30.9517 37.3169C29.3092 36.2204 28.0282 34.6621 27.2701 32.8385C26.5121 31.0149 26.311 29.0076 26.6921 27.0699C27.0733 25.1321 28.0197 23.3506 29.412 21.95C30.3379 21.0117 31.4416 20.2676 32.6586 19.761C33.8756 19.2545 35.1813 18.9958 36.4995 19C37.2988 19.005 38.0952 19.0972 38.8745 19.275C39.0376 19.3254 39.2093 19.3419 39.379 19.3235C39.5487 19.305 39.7128 19.252 39.8613 19.1677C40.0097 19.0834 40.1393 18.9696 40.242 18.8333C40.3448 18.697 40.4186 18.541 40.4588 18.3751C40.4989 18.2092 40.5047 18.0369 40.4758 17.8686C40.4468 17.7004 40.3836 17.5399 40.2903 17.397C40.1969 17.2541 40.0752 17.1318 39.9328 17.0378C39.7903 16.9437 39.6301 16.8798 39.462 16.85C38.491 16.6216 37.4971 16.5041 36.4995 16.5C34.0299 16.5128 31.6195 17.2569 29.5724 18.6383C27.5253 20.0197 25.9332 21.9766 24.9972 24.2619C24.0611 26.5472 23.823 29.0587 24.3128 31.4792C24.8027 33.8997 25.9985 36.1209 27.7495 37.8625C30.0704 40.1844 33.2166 41.4923 36.4995 41.5C39.8147 41.5 42.9942 40.183 45.3384 37.8388C47.6826 35.4946 48.9995 32.3152 48.9995 29C48.9995 28.6685 48.8678 28.3505 48.6334 28.1161C48.399 27.8817 48.081 27.75 47.7495 27.75Z" fill="#026451"/>
</g>
<path d="M59.78 40V19H63.23V40H59.78ZM62.15 31V27.85H72.83V31H62.15ZM62.15 22.15V19H73.34V22.15H62.15ZM82.4555 40.3C81.0155 40.3 79.7155 39.98 78.5555 39.34C77.4155 38.68 76.5055 37.78 75.8255 36.64C75.1655 35.5 74.8355 34.22 74.8355 32.8C74.8355 31.38 75.1655 30.11 75.8255 28.99C76.4855 27.85 77.3755 26.95 78.4955 26.29C79.6355 25.63 80.8955 25.3 82.2755 25.3C83.6155 25.3 84.7955 25.61 85.8155 26.23C86.8555 26.85 87.6655 27.7 88.2455 28.78C88.8455 29.86 89.1455 31.09 89.1455 32.47C89.1455 32.71 89.1255 32.96 89.0855 33.22C89.0655 33.46 89.0255 33.73 88.9655 34.03H77.1455V31.33H87.2555L86.0255 32.41C85.9855 31.53 85.8155 30.79 85.5155 30.19C85.2155 29.59 84.7855 29.13 84.2255 28.81C83.6855 28.49 83.0155 28.33 82.2155 28.33C81.3755 28.33 80.6455 28.51 80.0255 28.87C79.4055 29.23 78.9255 29.74 78.5855 30.4C78.2455 31.04 78.0755 31.81 78.0755 32.71C78.0755 33.61 78.2555 34.4 78.6155 35.08C78.9755 35.76 79.4855 36.29 80.1455 36.67C80.8055 37.03 81.5655 37.21 82.4255 37.21C83.1655 37.21 83.8455 37.08 84.4655 36.82C85.1055 36.56 85.6455 36.18 86.0855 35.68L88.1855 37.81C87.4855 38.63 86.6355 39.25 85.6355 39.67C84.6355 40.09 83.5755 40.3 82.4555 40.3ZM98.4809 40.3C97.0409 40.3 95.7409 39.98 94.5809 39.34C93.4409 38.68 92.5309 37.78 91.8509 36.64C91.1909 35.5 90.8609 34.22 90.8609 32.8C90.8609 31.38 91.1909 30.11 91.8509 28.99C92.5109 27.85 93.4009 26.95 94.5209 26.29C95.6609 25.63 96.9209 25.3 98.3009 25.3C99.6409 25.3 100.821 25.61 101.841 26.23C102.881 26.85 103.691 27.7 104.271 28.78C104.871 29.86 105.171 31.09 105.171 32.47C105.171 32.71 105.151 32.96 105.111 33.22C105.091 33.46 105.051 33.73 104.991 34.03H93.1709V31.33H103.281L102.051 32.41C102.011 31.53 101.841 30.79 101.541 30.19C101.241 29.59 100.811 29.13 100.251 28.81C99.7109 28.49 99.0409 28.33 98.2409 28.33C97.4009 28.33 96.6709 28.51 96.0509 28.87C95.4309 29.23 94.9509 29.74 94.6109 30.4C94.2709 31.04 94.1009 31.81 94.1009 32.71C94.1009 33.61 94.2809 34.4 94.6409 35.08C95.0009 35.76 95.5109 36.29 96.1709 36.67C96.8309 37.03 97.5909 37.21 98.4509 37.21C99.1909 37.21 99.8709 37.08 100.491 36.82C101.131 36.56 101.671 36.18 102.111 35.68L104.211 37.81C103.511 38.63 102.661 39.25 101.661 39.67C100.661 40.09 99.6009 40.3 98.4809 40.3ZM113.846 40.3C112.546 40.3 111.366 39.97 110.306 39.31C109.266 38.65 108.436 37.76 107.816 36.64C107.216 35.5 106.916 34.23 106.916 32.83C106.916 31.41 107.216 30.14 107.816 29.02C108.436 27.88 109.266 26.98 110.306 26.32C111.366 25.64 112.546 25.3 113.846 25.3C114.946 25.3 115.916 25.54 116.756 26.02C117.616 26.48 118.296 27.12 118.796 27.94C119.296 28.76 119.546 29.69 119.546 30.73V34.87C119.546 35.91 119.296 36.84 118.796 37.66C118.316 38.48 117.646 39.13 116.786 39.61C115.926 40.07 114.946 40.3 113.846 40.3ZM114.386 37.18C115.206 37.18 115.916 37 116.516 36.64C117.136 36.26 117.616 35.74 117.956 35.08C118.296 34.42 118.466 33.66 118.466 32.8C118.466 31.94 118.296 31.18 117.956 30.52C117.616 29.86 117.136 29.35 116.516 28.99C115.916 28.61 115.206 28.42 114.386 28.42C113.586 28.42 112.876 28.61 112.256 28.99C111.656 29.35 111.176 29.86 110.816 30.52C110.476 31.18 110.306 31.94 110.306 32.8C110.306 33.66 110.476 34.42 110.816 35.08C111.176 35.74 111.656 36.26 112.256 36.64C112.876 37 113.586 37.18 114.386 37.18ZM121.556 40H118.256V36.13L118.826 32.62L118.256 29.14V18.4H121.556V40ZM132.929 40.3C131.829 40.3 130.849 40.07 129.989 39.61C129.129 39.13 128.449 38.48 127.949 37.66C127.469 36.84 127.229 35.91 127.229 34.87V30.73C127.229 29.69 127.479 28.76 127.979 27.94C128.479 27.12 129.159 26.48 130.019 26.02C130.879 25.54 131.849 25.3 132.929 25.3C134.229 25.3 135.399 25.64 136.439 26.32C137.499 26.98 138.329 27.88 138.929 29.02C139.549 30.14 139.859 31.41 139.859 32.83C139.859 34.23 139.549 35.5 138.929 36.64C138.329 37.76 137.499 38.65 136.439 39.31C135.399 39.97 134.229 40.3 132.929 40.3ZM132.389 37.18C133.189 37.18 133.889 37 134.489 36.64C135.109 36.26 135.589 35.74 135.929 35.08C136.289 34.42 136.469 33.66 136.469 32.8C136.469 31.94 136.289 31.18 135.929 30.52C135.589 29.86 135.109 29.35 134.489 28.99C133.889 28.61 133.189 28.42 132.389 28.42C131.589 28.42 130.879 28.61 130.259 28.99C129.639 29.35 129.159 29.86 128.819 30.52C128.479 31.18 128.309 31.94 128.309 32.8C128.309 33.66 128.479 34.42 128.819 35.08C129.159 35.74 129.639 36.26 130.259 36.64C130.879 37 131.589 37.18 132.389 37.18ZM125.219 40V18.4H128.519V29.14L127.949 32.62L128.519 36.13V40H125.219ZM148.651 40.3C147.351 40.3 146.171 39.97 145.111 39.31C144.071 38.65 143.241 37.76 142.621 36.64C142.021 35.5 141.721 34.23 141.721 32.83C141.721 31.41 142.021 30.14 142.621 29.02C143.241 27.88 144.071 26.98 145.111 26.32C146.171 25.64 147.351 25.3 148.651 25.3C149.751 25.3 150.721 25.54 151.561 26.02C152.421 26.48 153.101 27.12 153.601 27.94C154.101 28.76 154.351 29.69 154.351 30.73V34.87C154.351 35.91 154.101 36.84 153.601 37.66C153.121 38.48 152.451 39.13 151.591 39.61C150.731 40.07 149.751 40.3 148.651 40.3ZM149.191 37.18C150.411 37.18 151.391 36.77 152.131 35.95C152.891 35.13 153.271 34.08 153.271 32.8C153.271 31.94 153.101 31.18 152.761 30.52C152.421 29.86 151.941 29.35 151.321 28.99C150.721 28.61 150.011 28.42 149.191 28.42C148.391 28.42 147.681 28.61 147.061 28.99C146.461 29.35 145.981 29.86 145.621 30.52C145.281 31.18 145.111 31.94 145.111 32.8C145.111 33.66 145.281 34.42 145.621 35.08C145.981 35.74 146.461 36.26 147.061 36.64C147.681 37 148.391 37.18 149.191 37.18ZM153.061 40V36.13L153.631 32.62L153.061 29.14V25.6H156.361V40H153.061ZM166.653 40.3C165.233 40.3 163.943 39.97 162.783 39.31C161.643 38.65 160.743 37.75 160.083 36.61C159.423 35.47 159.093 34.2 159.093 32.8C159.093 31.38 159.423 30.11 160.083 28.99C160.743 27.85 161.643 26.95 162.783 26.29C163.943 25.63 165.233 25.3 166.653 25.3C167.773 25.3 168.813 25.52 169.773 25.96C170.753 26.38 171.583 26.99 172.263 27.79L170.103 29.98C169.683 29.48 169.173 29.11 168.573 28.87C167.993 28.61 167.353 28.48 166.653 28.48C165.833 28.48 165.103 28.67 164.463 29.05C163.843 29.41 163.353 29.91 162.993 30.55C162.653 31.19 162.483 31.94 162.483 32.8C162.483 33.64 162.653 34.39 162.993 35.05C163.353 35.69 163.843 36.2 164.463 36.58C165.103 36.94 165.833 37.12 166.653 37.12C167.353 37.12 167.993 37 168.573 36.76C169.173 36.5 169.683 36.12 170.103 35.62L172.263 37.81C171.583 38.61 170.753 39.23 169.773 39.67C168.813 40.09 167.773 40.3 166.653 40.3ZM183.793 40L177.703 32.65L183.763 25.6H187.693L180.732 33.52L180.883 31.63L187.993 40H183.793ZM174.643 40V18.4H177.943V40H174.643Z" fill="#026451"/>
<defs>
<clipPath id="clip0_1111_855">
<rect width="30" height="30" fill="white" transform="translate(21.5 14)"/>
</clipPath>
</defs>
</svg>
